{
 "asset": {
  "version": "2.0",
  "generator": "gltfpack 1.2"
 },
 "extensionsUsed": [
  "KHR_mesh_quantization",
  "EXT_meshopt_compression",
  "KHR_texture_transform",
  "KHR_texture_basisu"
 ],
 "extensionsRequired": [
  "KHR_mesh_quantization",
  "EXT_meshopt_compression",
  "KHR_texture_basisu"
 ],
 "buffers": [
  {
   "uri": "lod2.bin",
   "byteLength": 1572
  },
  {
   "byteLength": 3104,
   "extensions": {
    "EXT_meshopt_compression": {
     "fallback": true
    }
   }
  }
 ],
 "bufferViews": [
  {
   "buffer": 1,
   "byteOffset": 0,
   "byteLength": 536,
   "byteStride": 4,
   "target": 34962,
   "extensions": {
    "EXT_meshopt_compression": {
     "buffer": 0,
     "byteOffset": 0,
     "byteLength": 297,
     "byteStride": 4,
     "mode": "ATTRIBUTES",
     "filter": "OCTAHEDRAL",
     "count": 134
    }
   }
  },
  {
   "buffer": 1,
   "byteOffset": 536,
   "byteLength": 1072,
   "byteStride": 8,
   "target": 34962,
   "extensions": {
    "EXT_meshopt_compression": {
     "buffer": 0,
     "byteOffset": 300,
     "byteLength": 629,
     "byteStride": 8,
     "mode": "ATTRIBUTES",
     "count": 134
    }
   }
  },
  {
   "buffer": 1,
   "byteOffset": 1608,
   "byteLength": 536,
   "byteStride": 4,
   "target": 34962,
   "extensions": {
    "EXT_meshopt_compression": {
     "buffer": 0,
     "byteOffset": 932,
     "byteLength": 443,
     "byteStride": 4,
     "mode": "ATTRIBUTES",
     "count": 134
    }
   }
  },
  {
   "buffer": 1,
   "byteOffset": 2144,
   "byteLength": 960,
   "target": 34963,
   "extensions": {
    "EXT_meshopt_compression": {
     "buffer": 0,
     "byteOffset": 1376,
     "byteLength": 195,
     "byteStride": 2,
     "mode": "TRIANGLES",
     "count": 480
    }
   }
  }
 ],
 "accessors": [
  {
   "bufferView": 0,
   "byteOffset": 0,
   "componentType": 5120,
   "count": 134,
   "type": "VEC3",
   "normalized": true
  },
  {
   "bufferView": 1,
   "byteOffset": 0,
   "componentType": 5123,
   "count": 134,
   "type": "VEC3",
   "min": [
    0,
    0,
    0
   ],
   "max": [
    65535,
    391,
    43717
   ]
  },
  {
   "bufferView": 2,
   "byteOffset": 0,
   "componentType": 5123,
   "count": 134,
   "type": "VEC2",
   "normalized": true
  },
  {
   "bufferView": 3,
   "byteOffset": 0,
   "componentType": 5123,
   "count": 480,
   "type": "SCALAR"
  }
 ],
 "samplers": [
  {}
 ],
 "images": [
  {
   "name": "Normal_6f530249-20d1-4c55-b965-4c1c6d9632aa.png",
   "uri": "textures/source-tex0-f10ba26cbdbd.ktx2"
  },
  {
   "name": "ao_met_rough_Metallic_a628d448-d92d-4173-b281-c87a83fbc775_Roughness_59c15c5f-e3cf-4f12-a5d3-85204a5acdc5",
   "uri": "textures/source-tex1-d5c92a0533e4.ktx2"
  },
  {
   "name": "B07MJL5QVL_Base_Color.png",
   "uri": "textures/source-tex2-9a9e5d14b8cc.ktx2"
  }
 ],
 "textures": [
  {
   "sampler": 0,
   "extensions": {
    "KHR_texture_basisu": {
     "source": 2
    }
   }
  },
  {
   "sampler": 0,
   "extensions": {
    "KHR_texture_basisu": {
     "source": 0
    }
   }
  },
  {
   "sampler": 0,
   "extensions": {
    "KHR_texture_basisu": {
     "source": 1
    }
   }
  }
 ],
 "materials": [
  {
   "name": "\"B07MJL5QVL_TRB_MDL_MR\"",
   "pbrMetallicRoughness": {
    "baseColorTexture": {
     "index": 0,
     "extensions": {
      "KHR_texture_transform": {
       "offset": [
        0.125511006,
        0.0880590081
       ],
       "scale": [
        12.82372,
        13.1717186
       ]
      }
     }
    },
    "metallicRoughnessTexture": {
     "index": 2,
     "extensions": {
      "KHR_texture_transform": {
       "offset": [
        0.125511006,
        0.0880590081
       ],
       "scale": [
        12.82372,
        13.1717186
       ]
      }
     }
    }
   },
   "normalTexture": {
    "index": 1,
    "extensions": {
     "KHR_texture_transform": {
      "offset": [
       0.125511006,
       0.0880590081
      ],
      "scale": [
       12.82372,
       13.1717186
      ]
     }
    }
   }
  }
 ],
 "meshes": [
  {
   "primitives": [
    {
     "attributes": {
      "NORMAL": 0,
      "POSITION": 1,
      "TEXCOORD_0": 2
     },
     "indices": 3,
     "material": 0
    }
   ]
  }
 ],
 "nodes": [
  {
   "mesh": 0,
   "translation": [
    -1.14277208,
    -1.110223e-18,
    -0.762032151
   ],
   "scale": [
    0.0000348703834,
    0.0000348703834,
    0.0000348703834
   ]
  }
 ],
 "scenes": [
  {
   "name": "Root Scene",
   "nodes": [
    0
   ]
  }
 ],
 "scene": 0
}
