{
 "asset": {
  "version": "2.0",
  "generator": "gltfpack 1.2"
 },
 "extensionsUsed": [
  "KHR_mesh_quantization",
  "EXT_meshopt_compression",
  "KHR_texture_transform",
  "KHR_texture_basisu"
 ],
 "extensionsRequired": [
  "KHR_mesh_quantization",
  "EXT_meshopt_compression",
  "KHR_texture_basisu"
 ],
 "buffers": [
  {
   "uri": "lod1.bin",
   "byteLength": 73344
  },
  {
   "byteLength": 178672,
   "extensions": {
    "EXT_meshopt_compression": {
     "fallback": true
    }
   }
  }
 ],
 "bufferViews": [
  {
   "buffer": 1,
   "byteOffset": 0,
   "byteLength": 30052,
   "byteStride": 4,
   "target": 34962,
   "extensions": {
    "EXT_meshopt_compression": {
     "buffer": 0,
     "byteOffset": 0,
     "byteLength": 14843,
     "byteStride": 4,
     "mode": "ATTRIBUTES",
     "filter": "OCTAHEDRAL",
     "count": 7513
    }
   }
  },
  {
   "buffer": 1,
   "byteOffset": 30052,
   "byteLength": 60104,
   "byteStride": 8,
   "target": 34962,
   "extensions": {
    "EXT_meshopt_compression": {
     "buffer": 0,
     "byteOffset": 14844,
     "byteLength": 33160,
     "byteStride": 8,
     "mode": "ATTRIBUTES",
     "count": 7513
    }
   }
  },
  {
   "buffer": 1,
   "byteOffset": 90156,
   "byteLength": 30052,
   "byteStride": 4,
   "target": 34962,
   "extensions": {
    "EXT_meshopt_compression": {
     "buffer": 0,
     "byteOffset": 48004,
     "byteLength": 14622,
     "byteStride": 4,
     "mode": "ATTRIBUTES",
     "count": 7513
    }
   }
  },
  {
   "buffer": 1,
   "byteOffset": 120208,
   "byteLength": 58464,
   "target": 34963,
   "extensions": {
    "EXT_meshopt_compression": {
     "buffer": 0,
     "byteOffset": 62628,
     "byteLength": 10716,
     "byteStride": 2,
     "mode": "TRIANGLES",
     "count": 29232
    }
   }
  }
 ],
 "accessors": [
  {
   "bufferView": 0,
   "byteOffset": 0,
   "componentType": 5120,
   "count": 7513,
   "type": "VEC3",
   "normalized": true
  },
  {
   "bufferView": 1,
   "byteOffset": 0,
   "componentType": 5123,
   "count": 7513,
   "type": "VEC3",
   "min": [
    0,
    0,
    0
   ],
   "max": [
    62529,
    57319,
    65535
   ]
  },
  {
   "bufferView": 2,
   "byteOffset": 0,
   "componentType": 5123,
   "count": 7513,
   "type": "VEC2",
   "normalized": true
  },
  {
   "bufferView": 3,
   "byteOffset": 0,
   "componentType": 5123,
   "count": 29232,
   "type": "SCALAR"
  }
 ],
 "samplers": [
  {
   "magFilter": 9729,
   "minFilter": 9985
  }
 ],
 "images": [
  {
   "uri": "textures/source-tex0-4fd98eced380.ktx2"
  },
  {
   "uri": "textures/source-tex1-4ccb12355cd9.ktx2"
  },
  {
   "uri": "textures/source-tex2-0c0ea0c47edc.ktx2"
  }
 ],
 "textures": [
  {
   "sampler": 0,
   "extensions": {
    "KHR_texture_basisu": {
     "source": 0
    }
   }
  },
  {
   "sampler": 0,
   "extensions": {
    "KHR_texture_basisu": {
     "source": 2
    }
   }
  },
  {
   "sampler": 0,
   "extensions": {
    "KHR_texture_basisu": {
     "source": 1
    }
   }
  }
 ],
 "materials": [
  {
   "name": "B075X342T5_MAT_MR",
   "pbrMetallicRoughness": {
    "baseColorTexture": {
     "index": 0,
     "extensions": {
      "KHR_texture_transform": {
       "offset": [
        0.000500000024,
        0.00049996376
       ],
       "scale": [
        15.9232597,
        15.9876595
       ]
      }
     }
    },
    "metallicRoughnessTexture": {
     "index": 2,
     "extensions": {
      "KHR_texture_transform": {
       "offset": [
        0.000500000024,
        0.00049996376
       ],
       "scale": [
        15.9232597,
        15.9876595
       ]
      }
     }
    }
   },
   "normalTexture": {
    "index": 1,
    "extensions": {
     "KHR_texture_transform": {
      "offset": [
       0.000500000024,
       0.00049996376
      ],
      "scale": [
       15.9232597,
       15.9876595
      ]
     }
    }
   },
   "occlusionTexture": {
    "index": 2,
    "extensions": {
     "KHR_texture_transform": {
      "offset": [
       0.000500000024,
       0.00049996376
      ],
      "scale": [
       15.9232597,
       15.9876595
      ]
     }
    }
   }
  }
 ],
 "meshes": [
  {
   "primitives": [
    {
     "attributes": {
      "NORMAL": 0,
      "POSITION": 1,
      "TEXCOORD_0": 2
     },
     "indices": 3,
     "material": 0
    }
   ]
  }
 ],
 "nodes": [
  {
   "mesh": 0,
   "translation": [
    -0.457199514,
    2.98023224e-8,
    -0.479406923
   ],
   "scale": [
    0.0000146235061,
    0.0000146235061,
    0.0000146235061
   ]
  }
 ],
 "scenes": [
  {
   "name": "Scene",
   "nodes": [
    0
   ]
  }
 ],
 "scene": 0
}
