{
 "asset": {
  "version": "2.0",
  "generator": "gltfpack 1.2"
 },
 "extensionsUsed": [
  "KHR_mesh_quantization",
  "EXT_meshopt_compression",
  "KHR_texture_transform",
  "KHR_texture_basisu"
 ],
 "extensionsRequired": [
  "KHR_mesh_quantization",
  "EXT_meshopt_compression",
  "KHR_texture_basisu"
 ],
 "buffers": [
  {
   "uri": "lod0.bin",
   "byteLength": 118152
  },
  {
   "byteLength": 308832,
   "extensions": {
    "EXT_meshopt_compression": {
     "fallback": true
    }
   }
  }
 ],
 "bufferViews": [
  {
   "buffer": 1,
   "byteOffset": 0,
   "byteLength": 47856,
   "byteStride": 4,
   "target": 34962,
   "extensions": {
    "EXT_meshopt_compression": {
     "buffer": 0,
     "byteOffset": 0,
     "byteLength": 20697,
     "byteStride": 4,
     "mode": "ATTRIBUTES",
     "filter": "OCTAHEDRAL",
     "count": 11964
    }
   }
  },
  {
   "buffer": 1,
   "byteOffset": 47856,
   "byteLength": 95712,
   "byteStride": 8,
   "target": 34962,
   "extensions": {
    "EXT_meshopt_compression": {
     "buffer": 0,
     "byteOffset": 20700,
     "byteLength": 51749,
     "byteStride": 8,
     "mode": "ATTRIBUTES",
     "count": 11964
    }
   }
  },
  {
   "buffer": 1,
   "byteOffset": 143568,
   "byteLength": 47856,
   "byteStride": 4,
   "target": 34962,
   "extensions": {
    "EXT_meshopt_compression": {
     "buffer": 0,
     "byteOffset": 72452,
     "byteLength": 23680,
     "byteStride": 4,
     "mode": "ATTRIBUTES",
     "count": 11964
    }
   }
  },
  {
   "buffer": 1,
   "byteOffset": 191424,
   "byteLength": 117408,
   "target": 34963,
   "extensions": {
    "EXT_meshopt_compression": {
     "buffer": 0,
     "byteOffset": 96132,
     "byteLength": 22019,
     "byteStride": 2,
     "mode": "TRIANGLES",
     "count": 58704
    }
   }
  }
 ],
 "accessors": [
  {
   "bufferView": 0,
   "byteOffset": 0,
   "componentType": 5120,
   "count": 11964,
   "type": "VEC3",
   "normalized": true
  },
  {
   "bufferView": 1,
   "byteOffset": 0,
   "componentType": 5123,
   "count": 11964,
   "type": "VEC3",
   "min": [
    0,
    0,
    0
   ],
   "max": [
    50933,
    29532,
    65535
   ]
  },
  {
   "bufferView": 2,
   "byteOffset": 0,
   "componentType": 5123,
   "count": 11964,
   "type": "VEC2",
   "normalized": true
  },
  {
   "bufferView": 3,
   "byteOffset": 0,
   "componentType": 5123,
   "count": 58704,
   "type": "SCALAR"
  }
 ],
 "samplers": [
  {}
 ],
 "images": [
  {
   "name": "Normal_3da248e0-4d35-4347-8260-9085de67266b.png",
   "uri": "textures/source-tex0-ba737f59775d.ktx2"
  },
  {
   "name": "ao_met_rough_Metallic_7c06b2d3-d6ae-4971-ab4a-832f5bf10184_Roughness_2b56d5b4-b85b-4dc5-a136-d9fbfe46bb36",
   "uri": "textures/source-tex1-7c21b475da99.ktx2"
  },
  {
   "name": "Albedo_f0a33ff3-41f7-449d-a957-b2a79a1544ed.jpg",
   "uri": "textures/source-tex2-0cbb1511f590.ktx2"
  }
 ],
 "textures": [
  {
   "sampler": 0,
   "extensions": {
    "KHR_texture_basisu": {
     "source": 2
    }
   }
  },
  {
   "sampler": 0,
   "extensions": {
    "KHR_texture_basisu": {
     "source": 0
    }
   }
  },
  {
   "sampler": 0,
   "extensions": {
    "KHR_texture_basisu": {
     "source": 1
    }
   }
  }
 ],
 "materials": [
  {
   "name": "\"AEKOIJIHJDCAAAAAFMBAAAAAAAAAEPMPCFPM\"",
   "pbrMetallicRoughness": {
    "baseColorTexture": {
     "index": 0,
     "extensions": {
      "KHR_texture_transform": {
       "offset": [
        0.00834899954,
        0.0115849972
       ],
       "scale": [
        15.6760998,
        15.7081232
       ]
      }
     }
    },
    "metallicRoughnessTexture": {
     "index": 2,
     "extensions": {
      "KHR_texture_transform": {
       "offset": [
        0.00834899954,
        0.0115849972
       ],
       "scale": [
        15.6760998,
        15.7081232
       ]
      }
     }
    }
   },
   "normalTexture": {
    "index": 1,
    "extensions": {
     "KHR_texture_transform": {
      "offset": [
       0.00834899954,
       0.0115849972
      ],
      "scale": [
       15.6760998,
       15.7081232
      ]
     }
    }
   }
  }
 ],
 "meshes": [
  {
   "primitives": [
    {
     "attributes": {
      "NORMAL": 0,
      "POSITION": 1,
      "TEXCOORD_0": 2
     },
     "indices": 3,
     "material": 0
    }
   ]
  }
 ],
 "nodes": [
  {
   "mesh": 0,
   "translation": [
    -0.920036197,
    0,
    -1.18379593
   ],
   "scale": [
    0.0000361271304,
    0.0000361271304,
    0.0000361271304
   ]
  }
 ],
 "scenes": [
  {
   "name": "Root Scene",
   "nodes": [
    0
   ]
  }
 ],
 "scene": 0
}
