{
 "asset": {
  "version": "2.0",
  "generator": "gltfpack 1.2"
 },
 "extensionsUsed": [
  "KHR_mesh_quantization",
  "EXT_meshopt_compression",
  "KHR_texture_transform",
  "KHR_texture_basisu"
 ],
 "extensionsRequired": [
  "KHR_mesh_quantization",
  "EXT_meshopt_compression",
  "KHR_texture_basisu"
 ],
 "buffers": [
  {
   "uri": "lod1.bin",
   "byteLength": 55828
  },
  {
   "byteLength": 133980,
   "extensions": {
    "EXT_meshopt_compression": {
     "fallback": true
    }
   }
  }
 ],
 "bufferViews": [
  {
   "buffer": 1,
   "byteOffset": 0,
   "byteLength": 21756,
   "byteStride": 4,
   "target": 34962,
   "extensions": {
    "EXT_meshopt_compression": {
     "buffer": 0,
     "byteOffset": 0,
     "byteLength": 10380,
     "byteStride": 4,
     "mode": "ATTRIBUTES",
     "filter": "OCTAHEDRAL",
     "count": 5439
    }
   }
  },
  {
   "buffer": 1,
   "byteOffset": 21756,
   "byteLength": 43512,
   "byteStride": 8,
   "target": 34962,
   "extensions": {
    "EXT_meshopt_compression": {
     "buffer": 0,
     "byteOffset": 10380,
     "byteLength": 24847,
     "byteStride": 8,
     "mode": "ATTRIBUTES",
     "count": 5439
    }
   }
  },
  {
   "buffer": 1,
   "byteOffset": 65268,
   "byteLength": 21756,
   "byteStride": 4,
   "target": 34962,
   "extensions": {
    "EXT_meshopt_compression": {
     "buffer": 0,
     "byteOffset": 35228,
     "byteLength": 11948,
     "byteStride": 4,
     "mode": "ATTRIBUTES",
     "count": 5439
    }
   }
  },
  {
   "buffer": 1,
   "byteOffset": 87024,
   "byteLength": 46956,
   "target": 34963,
   "extensions": {
    "EXT_meshopt_compression": {
     "buffer": 0,
     "byteOffset": 47176,
     "byteLength": 8650,
     "byteStride": 2,
     "mode": "TRIANGLES",
     "count": 23478
    }
   }
  }
 ],
 "accessors": [
  {
   "bufferView": 0,
   "byteOffset": 0,
   "componentType": 5120,
   "count": 5439,
   "type": "VEC3",
   "normalized": true
  },
  {
   "bufferView": 1,
   "byteOffset": 0,
   "componentType": 5123,
   "count": 5439,
   "type": "VEC3",
   "min": [
    0,
    0,
    0
   ],
   "max": [
    50933,
    29511,
    65535
   ]
  },
  {
   "bufferView": 2,
   "byteOffset": 0,
   "componentType": 5123,
   "count": 5439,
   "type": "VEC2",
   "normalized": true
  },
  {
   "bufferView": 3,
   "byteOffset": 0,
   "componentType": 5123,
   "count": 23478,
   "type": "SCALAR"
  }
 ],
 "samplers": [
  {}
 ],
 "images": [
  {
   "name": "Normal_3da248e0-4d35-4347-8260-9085de67266b.png",
   "uri": "textures/source-tex0-03a737504bf3.ktx2"
  },
  {
   "name": "ao_met_rough_Metallic_7c06b2d3-d6ae-4971-ab4a-832f5bf10184_Roughness_2b56d5b4-b85b-4dc5-a136-d9fbfe46bb36",
   "uri": "textures/source-tex1-b2a4db59b560.ktx2"
  },
  {
   "name": "Albedo_f0a33ff3-41f7-449d-a957-b2a79a1544ed.jpg",
   "uri": "textures/source-tex2-7c6db36d67c0.ktx2"
  }
 ],
 "textures": [
  {
   "sampler": 0,
   "extensions": {
    "KHR_texture_basisu": {
     "source": 2
    }
   }
  },
  {
   "sampler": 0,
   "extensions": {
    "KHR_texture_basisu": {
     "source": 0
    }
   }
  },
  {
   "sampler": 0,
   "extensions": {
    "KHR_texture_basisu": {
     "source": 1
    }
   }
  }
 ],
 "materials": [
  {
   "name": "\"AEKOIJIHJDCAAAAAFMBAAAAAAAAAEPMPCFPM\"",
   "pbrMetallicRoughness": {
    "baseColorTexture": {
     "index": 0,
     "extensions": {
      "KHR_texture_transform": {
       "offset": [
        0.0087059997,
        0.0116369724
       ],
       "scale": [
        15.6703873,
        15.7071857
       ]
      }
     }
    },
    "metallicRoughnessTexture": {
     "index": 2,
     "extensions": {
      "KHR_texture_transform": {
       "offset": [
        0.0087059997,
        0.0116369724
       ],
       "scale": [
        15.6703873,
        15.7071857
       ]
      }
     }
    }
   },
   "normalTexture": {
    "index": 1,
    "extensions": {
     "KHR_texture_transform": {
      "offset": [
       0.0087059997,
       0.0116369724
      ],
      "scale": [
       15.6703873,
       15.7071857
      ]
     }
    }
   }
  }
 ],
 "meshes": [
  {
   "primitives": [
    {
     "attributes": {
      "NORMAL": 0,
      "POSITION": 1,
      "TEXCOORD_0": 2
     },
     "indices": 3,
     "material": 0
    }
   ]
  }
 ],
 "nodes": [
  {
   "mesh": 0,
   "translation": [
    -0.920036197,
    0,
    -1.18379593
   ],
   "scale": [
    0.0000361271304,
    0.0000361271304,
    0.0000361271304
   ]
  }
 ],
 "scenes": [
  {
   "name": "Root Scene",
   "nodes": [
    0
   ]
  }
 ],
 "scene": 0
}
