{
 "asset": {
  "version": "2.0",
  "generator": "gltfpack 1.2"
 },
 "extensionsUsed": [
  "KHR_mesh_quantization",
  "EXT_meshopt_compression",
  "KHR_texture_transform",
  "KHR_texture_basisu"
 ],
 "extensionsRequired": [
  "KHR_mesh_quantization",
  "EXT_meshopt_compression",
  "KHR_texture_basisu"
 ],
 "buffers": [
  {
   "uri": "lod1.bin",
   "byteLength": 161176
  },
  {
   "byteLength": 404616,
   "extensions": {
    "EXT_meshopt_compression": {
     "fallback": true
    }
   }
  }
 ],
 "bufferViews": [
  {
   "buffer": 1,
   "byteOffset": 0,
   "byteLength": 61872,
   "byteStride": 4,
   "target": 34962,
   "extensions": {
    "EXT_meshopt_compression": {
     "buffer": 0,
     "byteOffset": 0,
     "byteLength": 29573,
     "byteStride": 4,
     "mode": "ATTRIBUTES",
     "filter": "OCTAHEDRAL",
     "count": 15468
    }
   }
  },
  {
   "buffer": 1,
   "byteOffset": 61872,
   "byteLength": 123744,
   "byteStride": 8,
   "target": 34962,
   "extensions": {
    "EXT_meshopt_compression": {
     "buffer": 0,
     "byteOffset": 29576,
     "byteLength": 66619,
     "byteStride": 8,
     "mode": "ATTRIBUTES",
     "count": 15468
    }
   }
  },
  {
   "buffer": 1,
   "byteOffset": 185616,
   "byteLength": 61872,
   "byteStride": 4,
   "target": 34962,
   "extensions": {
    "EXT_meshopt_compression": {
     "buffer": 0,
     "byteOffset": 96196,
     "byteLength": 34474,
     "byteStride": 4,
     "mode": "ATTRIBUTES",
     "count": 15468
    }
   }
  },
  {
   "buffer": 1,
   "byteOffset": 247488,
   "byteLength": 157128,
   "target": 34963,
   "extensions": {
    "EXT_meshopt_compression": {
     "buffer": 0,
     "byteOffset": 130672,
     "byteLength": 30503,
     "byteStride": 2,
     "mode": "TRIANGLES",
     "count": 78564
    }
   }
  }
 ],
 "accessors": [
  {
   "bufferView": 0,
   "byteOffset": 0,
   "componentType": 5120,
   "count": 15468,
   "type": "VEC3",
   "normalized": true
  },
  {
   "bufferView": 1,
   "byteOffset": 0,
   "componentType": 5123,
   "count": 15468,
   "type": "VEC3",
   "min": [
    0,
    0,
    0
   ],
   "max": [
    49749,
    41849,
    65535
   ]
  },
  {
   "bufferView": 2,
   "byteOffset": 0,
   "componentType": 5123,
   "count": 15468,
   "type": "VEC2",
   "normalized": true
  },
  {
   "bufferView": 3,
   "byteOffset": 0,
   "componentType": 5123,
   "count": 78564,
   "type": "SCALAR"
  }
 ],
 "samplers": [
  {}
 ],
 "images": [
  {
   "name": "Normal_31f0b13e-9011-4951-ac48-e157f015bdb3.png",
   "uri": "textures/source-tex0-f5e3f8ae7a5c.ktx2"
  },
  {
   "name": "ao_met_rough_Metallic_21f5a0a6-55f7-4f34-8b62-7a31bfbc2c6d_Roughness_e77a9440-c234-481e-8b21-5a89e7e55d8e",
   "uri": "textures/source-tex1-04fcc0381f64.ktx2"
  },
  {
   "name": "Albedo_f70fedce-3b4e-475b-8abd-77ca611e6b46.jpg",
   "uri": "textures/source-tex2-3e76915a3a0c.ktx2"
  }
 ],
 "textures": [
  {
   "sampler": 0,
   "extensions": {
    "KHR_texture_basisu": {
     "source": 2
    }
   }
  },
  {
   "sampler": 0,
   "extensions": {
    "KHR_texture_basisu": {
     "source": 0
    }
   }
  },
  {
   "sampler": 0,
   "extensions": {
    "KHR_texture_basisu": {
     "source": 1
    }
   }
  }
 ],
 "materials": [
  {
   "name": "\"ABEKICBANBCAAAAAFMBAAAAAAAAAOHKAPNPE\"",
   "pbrMetallicRoughness": {
    "baseColorTexture": {
     "index": 0,
     "extensions": {
      "KHR_texture_transform": {
       "offset": [
        0.00351926684,
        0.00490450859
       ],
       "scale": [
        15.8093853,
        15.6024809
       ]
      }
     }
    },
    "metallicRoughnessTexture": {
     "index": 2,
     "extensions": {
      "KHR_texture_transform": {
       "offset": [
        0.00351926684,
        0.00490450859
       ],
       "scale": [
        15.8093853,
        15.6024809
       ]
      }
     }
    }
   },
   "normalTexture": {
    "index": 1,
    "extensions": {
     "KHR_texture_transform": {
      "offset": [
       0.00351926684,
       0.00490450859
      ],
      "scale": [
       15.8093853,
       15.6024809
      ]
     }
    }
   }
  }
 ],
 "meshes": [
  {
   "primitives": [
    {
     "attributes": {
      "NORMAL": 0,
      "POSITION": 1,
      "TEXCOORD_0": 2
     },
     "indices": 3,
     "material": 0
    }
   ]
  }
 ],
 "nodes": [
  {
   "mesh": 0,
   "translation": [
    -0.847322524,
    0,
    -1.11646903
   ],
   "scale": [
    0.0000340728511,
    0.0000340728511,
    0.0000340728511
   ]
  }
 ],
 "scenes": [
  {
   "name": "Root Scene",
   "nodes": [
    0
   ]
  }
 ],
 "scene": 0
}
