{
 "asset": {
  "version": "2.0",
  "generator": "gltfpack 1.2"
 },
 "extensionsUsed": [
  "KHR_mesh_quantization",
  "EXT_meshopt_compression",
  "KHR_texture_transform",
  "KHR_texture_basisu"
 ],
 "extensionsRequired": [
  "KHR_mesh_quantization",
  "EXT_meshopt_compression",
  "KHR_texture_basisu"
 ],
 "buffers": [
  {
   "uri": "lod2.bin",
   "byteLength": 14520
  },
  {
   "byteLength": 35004,
   "extensions": {
    "EXT_meshopt_compression": {
     "fallback": true
    }
   }
  }
 ],
 "bufferViews": [
  {
   "buffer": 1,
   "byteOffset": 0,
   "byteLength": 5724,
   "byteStride": 4,
   "target": 34962,
   "extensions": {
    "EXT_meshopt_compression": {
     "buffer": 0,
     "byteOffset": 0,
     "byteLength": 2845,
     "byteStride": 4,
     "mode": "ATTRIBUTES",
     "filter": "OCTAHEDRAL",
     "count": 1431
    }
   }
  },
  {
   "buffer": 1,
   "byteOffset": 5724,
   "byteLength": 11448,
   "byteStride": 8,
   "target": 34962,
   "extensions": {
    "EXT_meshopt_compression": {
     "buffer": 0,
     "byteOffset": 2848,
     "byteLength": 6091,
     "byteStride": 8,
     "mode": "ATTRIBUTES",
     "count": 1431
    }
   }
  },
  {
   "buffer": 1,
   "byteOffset": 17172,
   "byteLength": 5724,
   "byteStride": 4,
   "target": 34962,
   "extensions": {
    "EXT_meshopt_compression": {
     "buffer": 0,
     "byteOffset": 8940,
     "byteLength": 3370,
     "byteStride": 4,
     "mode": "ATTRIBUTES",
     "count": 1431
    }
   }
  },
  {
   "buffer": 1,
   "byteOffset": 22896,
   "byteLength": 12108,
   "target": 34963,
   "extensions": {
    "EXT_meshopt_compression": {
     "buffer": 0,
     "byteOffset": 12312,
     "byteLength": 2208,
     "byteStride": 2,
     "mode": "TRIANGLES",
     "count": 6054
    }
   }
  }
 ],
 "accessors": [
  {
   "bufferView": 0,
   "byteOffset": 0,
   "componentType": 5120,
   "count": 1431,
   "type": "VEC3",
   "normalized": true
  },
  {
   "bufferView": 1,
   "byteOffset": 0,
   "componentType": 5123,
   "count": 1431,
   "type": "VEC3",
   "min": [
    0,
    0,
    0
   ],
   "max": [
    8389,
    65535,
    8268
   ]
  },
  {
   "bufferView": 2,
   "byteOffset": 0,
   "componentType": 5123,
   "count": 1431,
   "type": "VEC2",
   "normalized": true
  },
  {
   "bufferView": 3,
   "byteOffset": 0,
   "componentType": 5123,
   "count": 6054,
   "type": "SCALAR"
  }
 ],
 "samplers": [
  {}
 ],
 "images": [
  {
   "name": "Normal_43d254e2-b975-45c1-bada-784e7263e184.png",
   "uri": "textures/source-tex0-812b8bd81693.ktx2"
  },
  {
   "name": "Emissive_f32e7c31-241b-4bd3-9dfe-d6fb9bae08e7.png",
   "uri": "textures/source-tex1-b59b23d13bc5.ktx2"
  },
  {
   "name": "ao_met_rough_Metallic_2f541955-28c3-4e25-ae92-6d0edee9ab7d_Roughness_16dd2e72-f3cf-41b2-9224-6cbf9194ada7",
   "uri": "textures/source-tex2-31032f17a2e8.ktx2"
  },
  {
   "name": "Albedo_c6f77522-174f-48ed-8e5f-3fb5b6705f7b.jpg",
   "uri": "textures/source-tex3-04aec36a023b.ktx2"
  }
 ],
 "textures": [
  {
   "sampler": 0,
   "extensions": {
    "KHR_texture_basisu": {
     "source": 3
    }
   }
  },
  {
   "sampler": 0,
   "extensions": {
    "KHR_texture_basisu": {
     "source": 1
    }
   }
  },
  {
   "sampler": 0,
   "extensions": {
    "KHR_texture_basisu": {
     "source": 0
    }
   }
  },
  {
   "sampler": 0,
   "extensions": {
    "KHR_texture_basisu": {
     "source": 2
    }
   }
  }
 ],
 "materials": [
  {
   "name": "\"ALIPOCOCOBCAAAAAFMBAAAAAAAAAJCEEPADN\"",
   "pbrMetallicRoughness": {
    "baseColorTexture": {
     "index": 0,
     "extensions": {
      "KHR_texture_transform": {
       "offset": [
        0.00513800001,
        0.00581902266
       ],
       "scale": [
        15.8595657,
        15.8745289
       ]
      }
     }
    },
    "metallicRoughnessTexture": {
     "index": 3,
     "extensions": {
      "KHR_texture_transform": {
       "offset": [
        0.00513800001,
        0.00581902266
       ],
       "scale": [
        15.8595657,
        15.8745289
       ]
      }
     }
    }
   },
   "normalTexture": {
    "index": 2,
    "extensions": {
     "KHR_texture_transform": {
      "offset": [
       0.00513800001,
       0.00581902266
      ],
      "scale": [
       15.8595657,
       15.8745289
      ]
     }
    }
   },
   "emissiveTexture": {
    "index": 1,
    "extensions": {
     "KHR_texture_transform": {
      "offset": [
       0.00513800001,
       0.00581902266
      ],
      "scale": [
       15.8595657,
       15.8745289
      ]
     }
    }
   }
  }
 ],
 "meshes": [
  {
   "primitives": [
    {
     "attributes": {
      "NORMAL": 0,
      "POSITION": 1,
      "TEXCOORD_0": 2
     },
     "indices": 3,
     "material": 0
    }
   ]
  }
 ],
 "nodes": [
  {
   "mesh": 0,
   "translation": [
    -0.116055578,
    0,
    -0.114381231
   ],
   "scale": [
    0.0000276689061,
    0.0000276689061,
    0.0000276689061
   ]
  }
 ],
 "scenes": [
  {
   "name": "Root Scene",
   "nodes": [
    0
   ]
  }
 ],
 "scene": 0
}
