{
 "asset": {
  "version": "2.0",
  "generator": "gltfpack 1.2"
 },
 "extensionsUsed": [
  "KHR_mesh_quantization",
  "EXT_meshopt_compression",
  "KHR_texture_transform",
  "KHR_texture_basisu"
 ],
 "extensionsRequired": [
  "KHR_mesh_quantization",
  "EXT_meshopt_compression",
  "KHR_texture_basisu"
 ],
 "buffers": [
  {
   "uri": "lod1.bin",
   "byteLength": 6572
  },
  {
   "byteLength": 14620,
   "extensions": {
    "EXT_meshopt_compression": {
     "fallback": true
    }
   }
  }
 ],
 "bufferViews": [
  {
   "buffer": 1,
   "byteOffset": 0,
   "byteLength": 2500,
   "byteStride": 4,
   "target": 34962,
   "extensions": {
    "EXT_meshopt_compression": {
     "buffer": 0,
     "byteOffset": 0,
     "byteLength": 1255,
     "byteStride": 4,
     "mode": "ATTRIBUTES",
     "filter": "OCTAHEDRAL",
     "count": 625
    }
   }
  },
  {
   "buffer": 1,
   "byteOffset": 2500,
   "byteLength": 5000,
   "byteStride": 8,
   "target": 34962,
   "extensions": {
    "EXT_meshopt_compression": {
     "buffer": 0,
     "byteOffset": 1256,
     "byteLength": 2735,
     "byteStride": 8,
     "mode": "ATTRIBUTES",
     "count": 625
    }
   }
  },
  {
   "buffer": 1,
   "byteOffset": 7500,
   "byteLength": 2500,
   "byteStride": 4,
   "target": 34962,
   "extensions": {
    "EXT_meshopt_compression": {
     "buffer": 0,
     "byteOffset": 3992,
     "byteLength": 1784,
     "byteStride": 4,
     "mode": "ATTRIBUTES",
     "count": 625
    }
   }
  },
  {
   "buffer": 1,
   "byteOffset": 10000,
   "byteLength": 4620,
   "target": 34963,
   "extensions": {
    "EXT_meshopt_compression": {
     "buffer": 0,
     "byteOffset": 5776,
     "byteLength": 795,
     "byteStride": 2,
     "mode": "TRIANGLES",
     "count": 2310
    }
   }
  }
 ],
 "accessors": [
  {
   "bufferView": 0,
   "byteOffset": 0,
   "componentType": 5120,
   "count": 625,
   "type": "VEC3",
   "normalized": true
  },
  {
   "bufferView": 1,
   "byteOffset": 0,
   "componentType": 5123,
   "count": 625,
   "type": "VEC3",
   "min": [
    0,
    0,
    0
   ],
   "max": [
    65535,
    55009,
    51500
   ]
  },
  {
   "bufferView": 2,
   "byteOffset": 0,
   "componentType": 5123,
   "count": 625,
   "type": "VEC2",
   "normalized": true
  },
  {
   "bufferView": 3,
   "byteOffset": 0,
   "componentType": 5123,
   "count": 2310,
   "type": "SCALAR"
  }
 ],
 "samplers": [
  {
   "magFilter": 9729,
   "minFilter": 9985
  }
 ],
 "images": [
  {
   "uri": "textures/source-tex0-416ae01338f7.ktx2"
  },
  {
   "uri": "textures/source-tex1-b5188d3efad2.ktx2"
  },
  {
   "uri": "textures/source-tex2-8c93a7a9e72c.ktx2"
  }
 ],
 "textures": [
  {
   "sampler": 0,
   "extensions": {
    "KHR_texture_basisu": {
     "source": 0
    }
   }
  },
  {
   "sampler": 0,
   "extensions": {
    "KHR_texture_basisu": {
     "source": 2
    }
   }
  },
  {
   "sampler": 0,
   "extensions": {
    "KHR_texture_basisu": {
     "source": 1
    }
   }
  }
 ],
 "materials": [
  {
   "name": "B07K7K7GTZ_MAT_MR",
   "pbrMetallicRoughness": {
    "baseColorTexture": {
     "index": 0,
     "extensions": {
      "KHR_texture_transform": {
       "offset": [
        0.000500000024,
        0.000500023365
       ],
       "scale": [
        15.5745325,
        15.9876585
       ]
      }
     }
    },
    "metallicRoughnessTexture": {
     "index": 2,
     "extensions": {
      "KHR_texture_transform": {
       "offset": [
        0.000500000024,
        0.000500023365
       ],
       "scale": [
        15.5745325,
        15.9876585
       ]
      }
     }
    }
   },
   "normalTexture": {
    "index": 1,
    "extensions": {
     "KHR_texture_transform": {
      "offset": [
       0.000500000024,
       0.000500023365
      ],
      "scale": [
       15.5745325,
       15.9876585
      ]
     }
    }
   },
   "occlusionTexture": {
    "index": 2,
    "extensions": {
     "KHR_texture_transform": {
      "offset": [
       0.000500000024,
       0.000500023365
      ],
      "scale": [
       15.5745325,
       15.9876585
      ]
     }
    }
   }
  }
 ],
 "meshes": [
  {
   "primitives": [
    {
     "attributes": {
      "NORMAL": 0,
      "POSITION": 1,
      "TEXCOORD_0": 2
     },
     "indices": 3,
     "material": 0
    }
   ]
  }
 ],
 "nodes": [
  {
   "mesh": 0,
   "translation": [
    -0.279908031,
    0,
    -0.219964027
   ],
   "scale": [
    0.00000854224527,
    0.00000854224527,
    0.00000854224527
   ]
  }
 ],
 "scenes": [
  {
   "name": "Scene",
   "nodes": [
    0
   ]
  }
 ],
 "scene": 0
}
