{
 "asset": {
  "version": "2.0",
  "generator": "gltfpack 1.2"
 },
 "extensionsUsed": [
  "KHR_mesh_quantization",
  "EXT_meshopt_compression",
  "KHR_texture_transform",
  "KHR_texture_basisu"
 ],
 "extensionsRequired": [
  "KHR_mesh_quantization",
  "EXT_meshopt_compression",
  "KHR_texture_basisu"
 ],
 "buffers": [
  {
   "uri": "lod0.bin",
   "byteLength": 330068
  },
  {
   "byteLength": 952160,
   "extensions": {
    "EXT_meshopt_compression": {
     "fallback": true
    }
   }
  }
 ],
 "bufferViews": [
  {
   "buffer": 1,
   "byteOffset": 0,
   "byteLength": 139964,
   "byteStride": 4,
   "target": 34962,
   "extensions": {
    "EXT_meshopt_compression": {
     "buffer": 0,
     "byteOffset": 0,
     "byteLength": 48071,
     "byteStride": 4,
     "mode": "ATTRIBUTES",
     "filter": "OCTAHEDRAL",
     "count": 34991
    }
   }
  },
  {
   "buffer": 1,
   "byteOffset": 139964,
   "byteLength": 279928,
   "byteStride": 8,
   "target": 34962,
   "extensions": {
    "EXT_meshopt_compression": {
     "buffer": 0,
     "byteOffset": 48072,
     "byteLength": 144631,
     "byteStride": 8,
     "mode": "ATTRIBUTES",
     "count": 34991
    }
   }
  },
  {
   "buffer": 1,
   "byteOffset": 419892,
   "byteLength": 139964,
   "byteStride": 4,
   "target": 34962,
   "extensions": {
    "EXT_meshopt_compression": {
     "buffer": 0,
     "byteOffset": 192704,
     "byteLength": 63761,
     "byteStride": 4,
     "mode": "ATTRIBUTES",
     "count": 34991
    }
   }
  },
  {
   "buffer": 1,
   "byteOffset": 559856,
   "byteLength": 392304,
   "target": 34963,
   "extensions": {
    "EXT_meshopt_compression": {
     "buffer": 0,
     "byteOffset": 256468,
     "byteLength": 73598,
     "byteStride": 2,
     "mode": "TRIANGLES",
     "count": 196152
    }
   }
  }
 ],
 "accessors": [
  {
   "bufferView": 0,
   "byteOffset": 0,
   "componentType": 5120,
   "count": 34991,
   "type": "VEC3",
   "normalized": true
  },
  {
   "bufferView": 1,
   "byteOffset": 0,
   "componentType": 5123,
   "count": 34991,
   "type": "VEC3",
   "min": [
    0,
    0,
    0
   ],
   "max": [
    43294,
    65535,
    57192
   ]
  },
  {
   "bufferView": 2,
   "byteOffset": 0,
   "componentType": 5123,
   "count": 34991,
   "type": "VEC2",
   "normalized": true
  },
  {
   "bufferView": 3,
   "byteOffset": 0,
   "componentType": 5123,
   "count": 196152,
   "type": "SCALAR"
  }
 ],
 "samplers": [
  {
   "magFilter": 9729,
   "minFilter": 9985
  }
 ],
 "images": [
  {
   "uri": "textures/source-tex0-b8b836edf276.ktx2"
  },
  {
   "uri": "textures/source-tex1-9f066f9a6649.ktx2"
  },
  {
   "uri": "textures/source-tex2-7f0f64c7e98f.ktx2"
  }
 ],
 "textures": [
  {
   "sampler": 0,
   "extensions": {
    "KHR_texture_basisu": {
     "source": 0
    }
   }
  },
  {
   "sampler": 0,
   "extensions": {
    "KHR_texture_basisu": {
     "source": 2
    }
   }
  },
  {
   "sampler": 0,
   "extensions": {
    "KHR_texture_basisu": {
     "source": 1
    }
   }
  }
 ],
 "materials": [
  {
   "name": "B0746H7RL8_MAT_MR",
   "pbrMetallicRoughness": {
    "baseColorTexture": {
     "index": 0,
     "extensions": {
      "KHR_texture_transform": {
       "offset": [
        0.000500000024,
        0.0143067837
       ],
       "scale": [
        15.9876585,
        15.7666998
       ]
      }
     }
    },
    "metallicRoughnessTexture": {
     "index": 2,
     "extensions": {
      "KHR_texture_transform": {
       "offset": [
        0.000500000024,
        0.0143067837
       ],
       "scale": [
        15.9876585,
        15.7666998
       ]
      }
     }
    }
   },
   "normalTexture": {
    "index": 1,
    "extensions": {
     "KHR_texture_transform": {
      "offset": [
       0.000500000024,
       0.0143067837
      ],
      "scale": [
       15.9876585,
       15.7666998
      ]
     }
    }
   },
   "occlusionTexture": {
    "index": 2,
    "extensions": {
     "KHR_texture_transform": {
      "offset": [
       0.000500000024,
       0.0143067837
      ],
      "scale": [
       15.9876585,
       15.7666998
      ]
     }
    }
   }
  }
 ],
 "meshes": [
  {
   "primitives": [
    {
     "attributes": {
      "NORMAL": 0,
      "POSITION": 1,
      "TEXCOORD_0": 2
     },
     "indices": 3,
     "material": 0
    }
   ]
  }
 ],
 "nodes": [
  {
   "mesh": 0,
   "translation": [
    -0.346100003,
    1.78813934e-7,
    -0.457199693
   ],
   "scale": [
    0.0000159883639,
    0.0000159883639,
    0.0000159883639
   ]
  }
 ],
 "scenes": [
  {
   "name": "Scene",
   "nodes": [
    0
   ]
  }
 ],
 "scene": 0
}
