{
 "asset": {
  "version": "2.0",
  "generator": "gltfpack 1.2"
 },
 "extensionsUsed": [
  "KHR_mesh_quantization",
  "EXT_meshopt_compression",
  "KHR_texture_transform",
  "KHR_texture_basisu"
 ],
 "extensionsRequired": [
  "KHR_mesh_quantization",
  "EXT_meshopt_compression",
  "KHR_texture_basisu"
 ],
 "buffers": [
  {
   "uri": "lod2.bin",
   "byteLength": 53512
  },
  {
   "byteLength": 126372,
   "extensions": {
    "EXT_meshopt_compression": {
     "fallback": true
    }
   }
  }
 ],
 "bufferViews": [
  {
   "buffer": 1,
   "byteOffset": 0,
   "byteLength": 19824,
   "byteStride": 4,
   "target": 34962,
   "extensions": {
    "EXT_meshopt_compression": {
     "buffer": 0,
     "byteOffset": 0,
     "byteLength": 9766,
     "byteStride": 4,
     "mode": "ATTRIBUTES",
     "filter": "OCTAHEDRAL",
     "count": 4956
    }
   }
  },
  {
   "buffer": 1,
   "byteOffset": 19824,
   "byteLength": 39648,
   "byteStride": 8,
   "target": 34962,
   "extensions": {
    "EXT_meshopt_compression": {
     "buffer": 0,
     "byteOffset": 9768,
     "byteLength": 23490,
     "byteStride": 8,
     "mode": "ATTRIBUTES",
     "count": 4956
    }
   }
  },
  {
   "buffer": 1,
   "byteOffset": 59472,
   "byteLength": 19824,
   "byteStride": 4,
   "target": 34962,
   "extensions": {
    "EXT_meshopt_compression": {
     "buffer": 0,
     "byteOffset": 33260,
     "byteLength": 11255,
     "byteStride": 4,
     "mode": "ATTRIBUTES",
     "count": 4956
    }
   }
  },
  {
   "buffer": 1,
   "byteOffset": 79296,
   "byteLength": 47076,
   "target": 34963,
   "extensions": {
    "EXT_meshopt_compression": {
     "buffer": 0,
     "byteOffset": 44516,
     "byteLength": 8994,
     "byteStride": 2,
     "mode": "TRIANGLES",
     "count": 23538
    }
   }
  }
 ],
 "accessors": [
  {
   "bufferView": 0,
   "byteOffset": 0,
   "componentType": 5120,
   "count": 4956,
   "type": "VEC3",
   "normalized": true
  },
  {
   "bufferView": 1,
   "byteOffset": 0,
   "componentType": 5123,
   "count": 4956,
   "type": "VEC3",
   "min": [
    0,
    0,
    0
   ],
   "max": [
    43269,
    65535,
    57159
   ]
  },
  {
   "bufferView": 2,
   "byteOffset": 0,
   "componentType": 5123,
   "count": 4956,
   "type": "VEC2",
   "normalized": true
  },
  {
   "bufferView": 3,
   "byteOffset": 0,
   "componentType": 5123,
   "count": 23538,
   "type": "SCALAR"
  }
 ],
 "samplers": [
  {
   "magFilter": 9729,
   "minFilter": 9985
  }
 ],
 "images": [
  {
   "uri": "textures/source-tex0-8a6ec537b199.ktx2"
  },
  {
   "uri": "textures/source-tex1-3ff29ca69749.ktx2"
  },
  {
   "uri": "textures/source-tex2-e607336b9b24.ktx2"
  }
 ],
 "textures": [
  {
   "sampler": 0,
   "extensions": {
    "KHR_texture_basisu": {
     "source": 0
    }
   }
  },
  {
   "sampler": 0,
   "extensions": {
    "KHR_texture_basisu": {
     "source": 2
    }
   }
  },
  {
   "sampler": 0,
   "extensions": {
    "KHR_texture_basisu": {
     "source": 1
    }
   }
  }
 ],
 "materials": [
  {
   "name": "B0746H7RL8_MAT_MR",
   "pbrMetallicRoughness": {
    "baseColorTexture": {
     "index": 0,
     "extensions": {
      "KHR_texture_transform": {
       "offset": [
        0.000500000024,
        0.0143343806
       ],
       "scale": [
        15.9876585,
        15.7662582
       ]
      }
     }
    },
    "metallicRoughnessTexture": {
     "index": 2,
     "extensions": {
      "KHR_texture_transform": {
       "offset": [
        0.000500000024,
        0.0143343806
       ],
       "scale": [
        15.9876585,
        15.7662582
       ]
      }
     }
    }
   },
   "normalTexture": {
    "index": 1,
    "extensions": {
     "KHR_texture_transform": {
      "offset": [
       0.000500000024,
       0.0143343806
      ],
      "scale": [
       15.9876585,
       15.7662582
      ]
     }
    }
   },
   "occlusionTexture": {
    "index": 2,
    "extensions": {
     "KHR_texture_transform": {
      "offset": [
       0.000500000024,
       0.0143343806
      ],
      "scale": [
       15.9876585,
       15.7662582
      ]
     }
    }
   }
  }
 ],
 "meshes": [
  {
   "primitives": [
    {
     "attributes": {
      "NORMAL": 0,
      "POSITION": 1,
      "TEXCOORD_0": 2
     },
     "indices": 3,
     "material": 0
    }
   ]
  }
 ],
 "nodes": [
  {
   "mesh": 0,
   "translation": [
    -0.345582575,
    1.78813934e-7,
    -0.456837982
   ],
   "scale": [
    0.000015981379,
    0.000015981379,
    0.000015981379
   ]
  }
 ],
 "scenes": [
  {
   "name": "Scene",
   "nodes": [
    0
   ]
  }
 ],
 "scene": 0
}
