{
 "asset": {
  "version": "2.0",
  "generator": "gltfpack 1.2"
 },
 "extensionsUsed": [
  "KHR_mesh_quantization",
  "EXT_meshopt_compression",
  "KHR_texture_transform",
  "KHR_texture_basisu"
 ],
 "extensionsRequired": [
  "KHR_mesh_quantization",
  "EXT_meshopt_compression",
  "KHR_texture_basisu"
 ],
 "buffers": [
  {
   "uri": "lod1.bin",
   "byteLength": 50008
  },
  {
   "byteLength": 127444,
   "extensions": {
    "EXT_meshopt_compression": {
     "fallback": true
    }
   }
  }
 ],
 "bufferViews": [
  {
   "buffer": 1,
   "byteOffset": 0,
   "byteLength": 20272,
   "byteStride": 4,
   "target": 34962,
   "extensions": {
    "EXT_meshopt_compression": {
     "buffer": 0,
     "byteOffset": 0,
     "byteLength": 8589,
     "byteStride": 4,
     "mode": "ATTRIBUTES",
     "filter": "OCTAHEDRAL",
     "count": 5068
    }
   }
  },
  {
   "buffer": 1,
   "byteOffset": 20272,
   "byteLength": 40544,
   "byteStride": 8,
   "target": 34962,
   "extensions": {
    "EXT_meshopt_compression": {
     "buffer": 0,
     "byteOffset": 8592,
     "byteLength": 21627,
     "byteStride": 8,
     "mode": "ATTRIBUTES",
     "count": 5068
    }
   }
  },
  {
   "buffer": 1,
   "byteOffset": 60816,
   "byteLength": 20272,
   "byteStride": 4,
   "target": 34962,
   "extensions": {
    "EXT_meshopt_compression": {
     "buffer": 0,
     "byteOffset": 30220,
     "byteLength": 11122,
     "byteStride": 4,
     "mode": "ATTRIBUTES",
     "count": 5068
    }
   }
  },
  {
   "buffer": 1,
   "byteOffset": 81088,
   "byteLength": 46356,
   "target": 34963,
   "extensions": {
    "EXT_meshopt_compression": {
     "buffer": 0,
     "byteOffset": 41344,
     "byteLength": 8664,
     "byteStride": 2,
     "mode": "TRIANGLES",
     "count": 23178
    }
   }
  }
 ],
 "accessors": [
  {
   "bufferView": 0,
   "byteOffset": 0,
   "componentType": 5120,
   "count": 5068,
   "type": "VEC3",
   "normalized": true
  },
  {
   "bufferView": 1,
   "byteOffset": 0,
   "componentType": 5123,
   "count": 5068,
   "type": "VEC3",
   "min": [
    0,
    0,
    0
   ],
   "max": [
    48837,
    39827,
    65535
   ]
  },
  {
   "bufferView": 2,
   "byteOffset": 0,
   "componentType": 5123,
   "count": 5068,
   "type": "VEC2",
   "normalized": true
  },
  {
   "bufferView": 3,
   "byteOffset": 0,
   "componentType": 5123,
   "count": 23178,
   "type": "SCALAR"
  }
 ],
 "samplers": [
  {}
 ],
 "images": [
  {
   "name": "Normal_b6d07032-8b7f-4930-ac37-d2d2eec9690c.png",
   "uri": "textures/source-tex0-b607144908c9.ktx2"
  },
  {
   "name": "ao_met_rough_Metallic_96f260fe-50bd-40a0-be17-56301ade6caa_Roughness_b1ffbfad-4940-4a00-a88e-4a4233e86314",
   "uri": "textures/source-tex1-45c3efc602d7.ktx2"
  },
  {
   "name": "Albedo_d8965b90-7574-4910-973d-55250e05c587.jpg",
   "uri": "textures/source-tex2-26277b02d671.ktx2"
  }
 ],
 "textures": [
  {
   "sampler": 0,
   "extensions": {
    "KHR_texture_basisu": {
     "source": 2
    }
   }
  },
  {
   "sampler": 0,
   "extensions": {
    "KHR_texture_basisu": {
     "source": 0
    }
   }
  },
  {
   "sampler": 0,
   "extensions": {
    "KHR_texture_basisu": {
     "source": 1
    }
   }
  }
 ],
 "materials": [
  {
   "name": "\"AFMIFCCIAJBAAAAAFMBAAAAAAAAACLHKLFJF\"",
   "pbrMetallicRoughness": {
    "baseColorTexture": {
     "index": 0,
     "extensions": {
      "KHR_texture_transform": {
       "offset": [
        0.00680598617,
        0.00199604034
       ],
       "scale": [
        15.8778009,
        15.953083
       ]
      }
     }
    },
    "metallicRoughnessTexture": {
     "index": 2,
     "extensions": {
      "KHR_texture_transform": {
       "offset": [
        0.00680598617,
        0.00199604034
       ],
       "scale": [
        15.8778009,
        15.953083
       ]
      }
     }
    }
   },
   "normalTexture": {
    "index": 1,
    "extensions": {
     "KHR_texture_transform": {
      "offset": [
       0.00680598617,
       0.00199604034
      ],
      "scale": [
       15.8778009,
       15.953083
      ]
     }
    }
   }
  }
 ],
 "meshes": [
  {
   "primitives": [
    {
     "attributes": {
      "NORMAL": 0,
      "POSITION": 1,
      "TEXCOORD_0": 2
     },
     "indices": 3,
     "material": 0
    }
   ]
  }
 ],
 "nodes": [
  {
   "mesh": 0,
   "translation": [
    -0.831540525,
    0,
    -1.11586118
   ],
   "scale": [
    0.00003405389,
    0.00003405389,
    0.00003405389
   ]
  }
 ],
 "scenes": [
  {
   "name": "Root Scene",
   "nodes": [
    0
   ]
  }
 ],
 "scene": 0
}
