{
 "asset": {
  "version": "2.0",
  "generator": "gltfpack 1.2"
 },
 "extensionsUsed": [
  "KHR_mesh_quantization",
  "EXT_meshopt_compression",
  "KHR_texture_transform",
  "KHR_texture_basisu"
 ],
 "extensionsRequired": [
  "KHR_mesh_quantization",
  "EXT_meshopt_compression",
  "KHR_texture_basisu"
 ],
 "buffers": [
  {
   "uri": "lod1.bin",
   "byteLength": 31212
  },
  {
   "byteLength": 86192,
   "extensions": {
    "EXT_meshopt_compression": {
     "fallback": true
    }
   }
  }
 ],
 "bufferViews": [
  {
   "buffer": 1,
   "byteOffset": 0,
   "byteLength": 13952,
   "byteStride": 4,
   "target": 34962,
   "extensions": {
    "EXT_meshopt_compression": {
     "buffer": 0,
     "byteOffset": 0,
     "byteLength": 6384,
     "byteStride": 4,
     "mode": "ATTRIBUTES",
     "filter": "OCTAHEDRAL",
     "count": 3488
    }
   }
  },
  {
   "buffer": 1,
   "byteOffset": 13952,
   "byteLength": 27904,
   "byteStride": 8,
   "target": 34962,
   "extensions": {
    "EXT_meshopt_compression": {
     "buffer": 0,
     "byteOffset": 6384,
     "byteLength": 13717,
     "byteStride": 8,
     "mode": "ATTRIBUTES",
     "count": 3488
    }
   }
  },
  {
   "buffer": 1,
   "byteOffset": 41856,
   "byteLength": 13952,
   "byteStride": 4,
   "target": 34962,
   "extensions": {
    "EXT_meshopt_compression": {
     "buffer": 0,
     "byteOffset": 20104,
     "byteLength": 5666,
     "byteStride": 4,
     "mode": "ATTRIBUTES",
     "count": 3488
    }
   }
  },
  {
   "buffer": 1,
   "byteOffset": 55808,
   "byteLength": 30384,
   "target": 34963,
   "extensions": {
    "EXT_meshopt_compression": {
     "buffer": 0,
     "byteOffset": 25772,
     "byteLength": 5438,
     "byteStride": 2,
     "mode": "TRIANGLES",
     "count": 15192
    }
   }
  }
 ],
 "accessors": [
  {
   "bufferView": 0,
   "byteOffset": 0,
   "componentType": 5120,
   "count": 3488,
   "type": "VEC3",
   "normalized": true
  },
  {
   "bufferView": 1,
   "byteOffset": 0,
   "componentType": 5123,
   "count": 3488,
   "type": "VEC3",
   "min": [
    0,
    0,
    0
   ],
   "max": [
    62633,
    65535,
    17098
   ]
  },
  {
   "bufferView": 2,
   "byteOffset": 0,
   "componentType": 5123,
   "count": 3488,
   "type": "VEC2",
   "normalized": true
  },
  {
   "bufferView": 3,
   "byteOffset": 0,
   "componentType": 5123,
   "count": 15192,
   "type": "SCALAR"
  }
 ],
 "samplers": [
  {}
 ],
 "images": [
  {
   "name": "Normal_9d363693-953a-4c75-adf0-fb55c9ef65d7.png",
   "uri": "textures/source-tex0-eb37aeb67e79.ktx2"
  },
  {
   "name": "ao_met_rough_Metallic_c87f61d0-7014-4a21-b2a1-ee208a0d42a6_Roughness_a65bc95e-0101-4a6c-b416-56c07c2dcd9a",
   "uri": "textures/source-tex1-61d5ad26ddfd.ktx2"
  },
  {
   "name": "B07H8PS4FZ_Base_Color.png",
   "uri": "textures/source-tex2-01988a28a1bd.ktx2"
  }
 ],
 "textures": [
  {
   "sampler": 0,
   "extensions": {
    "KHR_texture_basisu": {
     "source": 2
    }
   }
  },
  {
   "sampler": 0,
   "extensions": {
    "KHR_texture_basisu": {
     "source": 0
    }
   }
  },
  {
   "sampler": 0,
   "extensions": {
    "KHR_texture_basisu": {
     "source": 1
    }
   }
  }
 ],
 "materials": [
  {
   "name": "\"B07H8PS4FZ_TRB_MDL_MR1\"",
   "pbrMetallicRoughness": {
    "baseColorTexture": {
     "index": 0,
     "extensions": {
      "KHR_texture_transform": {
       "offset": [
        0.000500000024,
        0.00848901272
       ],
       "scale": [
        15.9876585,
        15.8598051
       ]
      }
     }
    },
    "metallicRoughnessTexture": {
     "index": 2,
     "extensions": {
      "KHR_texture_transform": {
       "offset": [
        0.000500000024,
        0.00848901272
       ],
       "scale": [
        15.9876585,
        15.8598051
       ]
      }
     }
    }
   },
   "normalTexture": {
    "index": 1,
    "extensions": {
     "KHR_texture_transform": {
      "offset": [
       0.000500000024,
       0.00848901272
      ],
      "scale": [
       15.9876585,
       15.8598051
      ]
     }
    }
   }
  }
 ],
 "meshes": [
  {
   "primitives": [
    {
     "attributes": {
      "NORMAL": 0,
      "POSITION": 1,
      "TEXCOORD_0": 2
     },
     "indices": 3,
     "material": 0
    }
   ]
  }
 ],
 "nodes": [
  {
   "mesh": 0,
   "translation": [
    -1.07988107,
    0,
    -0.294894814
   ],
   "scale": [
    0.000034482935,
    0.000034482935,
    0.000034482935
   ]
  }
 ],
 "scenes": [
  {
   "name": "Root Scene",
   "nodes": [
    0
   ]
  }
 ],
 "scene": 0
}
