{
 "asset": {
  "version": "2.0",
  "generator": "gltfpack 1.2"
 },
 "extensionsUsed": [
  "KHR_mesh_quantization",
  "EXT_meshopt_compression",
  "KHR_texture_transform",
  "KHR_texture_basisu"
 ],
 "extensionsRequired": [
  "KHR_mesh_quantization",
  "EXT_meshopt_compression",
  "KHR_texture_basisu"
 ],
 "buffers": [
  {
   "uri": "lod2.bin",
   "byteLength": 12916
  },
  {
   "byteLength": 30628,
   "extensions": {
    "EXT_meshopt_compression": {
     "fallback": true
    }
   }
  }
 ],
 "bufferViews": [
  {
   "buffer": 1,
   "byteOffset": 0,
   "byteLength": 5380,
   "byteStride": 4,
   "target": 34962,
   "extensions": {
    "EXT_meshopt_compression": {
     "buffer": 0,
     "byteOffset": 0,
     "byteLength": 2757,
     "byteStride": 4,
     "mode": "ATTRIBUTES",
     "filter": "OCTAHEDRAL",
     "count": 1345
    }
   }
  },
  {
   "buffer": 1,
   "byteOffset": 5380,
   "byteLength": 10760,
   "byteStride": 8,
   "target": 34962,
   "extensions": {
    "EXT_meshopt_compression": {
     "buffer": 0,
     "byteOffset": 2760,
     "byteLength": 5831,
     "byteStride": 8,
     "mode": "ATTRIBUTES",
     "count": 1345
    }
   }
  },
  {
   "buffer": 1,
   "byteOffset": 16140,
   "byteLength": 5380,
   "byteStride": 4,
   "target": 34962,
   "extensions": {
    "EXT_meshopt_compression": {
     "buffer": 0,
     "byteOffset": 8592,
     "byteLength": 2756,
     "byteStride": 4,
     "mode": "ATTRIBUTES",
     "count": 1345
    }
   }
  },
  {
   "buffer": 1,
   "byteOffset": 21520,
   "byteLength": 9108,
   "target": 34963,
   "extensions": {
    "EXT_meshopt_compression": {
     "buffer": 0,
     "byteOffset": 11348,
     "byteLength": 1568,
     "byteStride": 2,
     "mode": "TRIANGLES",
     "count": 4554
    }
   }
  }
 ],
 "accessors": [
  {
   "bufferView": 0,
   "byteOffset": 0,
   "componentType": 5120,
   "count": 1345,
   "type": "VEC3",
   "normalized": true
  },
  {
   "bufferView": 1,
   "byteOffset": 0,
   "componentType": 5123,
   "count": 1345,
   "type": "VEC3",
   "min": [
    0,
    0,
    0
   ],
   "max": [
    62633,
    65535,
    17001
   ]
  },
  {
   "bufferView": 2,
   "byteOffset": 0,
   "componentType": 5123,
   "count": 1345,
   "type": "VEC2",
   "normalized": true
  },
  {
   "bufferView": 3,
   "byteOffset": 0,
   "componentType": 5123,
   "count": 4554,
   "type": "SCALAR"
  }
 ],
 "samplers": [
  {}
 ],
 "images": [
  {
   "name": "Normal_9d363693-953a-4c75-adf0-fb55c9ef65d7.png",
   "uri": "textures/source-tex0-6952cae7a549.ktx2"
  },
  {
   "name": "ao_met_rough_Metallic_c87f61d0-7014-4a21-b2a1-ee208a0d42a6_Roughness_a65bc95e-0101-4a6c-b416-56c07c2dcd9a",
   "uri": "textures/source-tex1-b9a05cc6775a.ktx2"
  },
  {
   "name": "B07H8PS4FZ_Base_Color.png",
   "uri": "textures/source-tex2-f930e24d6f3b.ktx2"
  }
 ],
 "textures": [
  {
   "sampler": 0,
   "extensions": {
    "KHR_texture_basisu": {
     "source": 2
    }
   }
  },
  {
   "sampler": 0,
   "extensions": {
    "KHR_texture_basisu": {
     "source": 0
    }
   }
  },
  {
   "sampler": 0,
   "extensions": {
    "KHR_texture_basisu": {
     "source": 1
    }
   }
  }
 ],
 "materials": [
  {
   "name": "\"B07H8PS4FZ_TRB_MDL_MR1\"",
   "pbrMetallicRoughness": {
    "baseColorTexture": {
     "index": 0,
     "extensions": {
      "KHR_texture_transform": {
       "offset": [
        0.000500000024,
        0.00850999355
       ],
       "scale": [
        15.9876585,
        15.8594694
       ]
      }
     }
    },
    "metallicRoughnessTexture": {
     "index": 2,
     "extensions": {
      "KHR_texture_transform": {
       "offset": [
        0.000500000024,
        0.00850999355
       ],
       "scale": [
        15.9876585,
        15.8594694
       ]
      }
     }
    }
   },
   "normalTexture": {
    "index": 1,
    "extensions": {
     "KHR_texture_transform": {
      "offset": [
       0.000500000024,
       0.00850999355
      ],
      "scale": [
       15.9876585,
       15.8594694
      ]
     }
    }
   }
  }
 ],
 "meshes": [
  {
   "primitives": [
    {
     "attributes": {
      "NORMAL": 0,
      "POSITION": 1,
      "TEXCOORD_0": 2
     },
     "indices": 3,
     "material": 0
    }
   ]
  }
 ],
 "nodes": [
  {
   "mesh": 0,
   "translation": [
    -1.07988107,
    0,
    -0.294894814
   ],
   "scale": [
    0.000034482935,
    0.000034482935,
    0.000034482935
   ]
  },
  {
   "name": "FurnitureOS post-simplification floor-centre LOD scene 0",
   "translation": [
    -0.000004000000000004,
    0,
    0.0017725000000000102
   ],
   "children": [
    0
   ]
  }
 ],
 "scenes": [
  {
   "name": "Root Scene",
   "nodes": [
    1
   ]
  }
 ],
 "scene": 0
}
