{
 "asset": {
  "version": "2.0",
  "generator": "gltfpack 1.2"
 },
 "extensionsUsed": [
  "KHR_mesh_quantization",
  "EXT_meshopt_compression",
  "KHR_texture_transform",
  "KHR_texture_basisu"
 ],
 "extensionsRequired": [
  "KHR_mesh_quantization",
  "EXT_meshopt_compression",
  "KHR_texture_basisu"
 ],
 "buffers": [
  {
   "uri": "lod1.bin",
   "byteLength": 89548
  },
  {
   "byteLength": 245920,
   "extensions": {
    "EXT_meshopt_compression": {
     "fallback": true
    }
   }
  }
 ],
 "bufferViews": [
  {
   "buffer": 1,
   "byteOffset": 0,
   "byteLength": 39988,
   "byteStride": 4,
   "target": 34962,
   "extensions": {
    "EXT_meshopt_compression": {
     "buffer": 0,
     "byteOffset": 0,
     "byteLength": 19767,
     "byteStride": 4,
     "mode": "ATTRIBUTES",
     "filter": "OCTAHEDRAL",
     "count": 9997
    }
   }
  },
  {
   "buffer": 1,
   "byteOffset": 39988,
   "byteLength": 79976,
   "byteStride": 8,
   "target": 34962,
   "extensions": {
    "EXT_meshopt_compression": {
     "buffer": 0,
     "byteOffset": 19768,
     "byteLength": 37249,
     "byteStride": 8,
     "mode": "ATTRIBUTES",
     "count": 9997
    }
   }
  },
  {
   "buffer": 1,
   "byteOffset": 119964,
   "byteLength": 39988,
   "byteStride": 4,
   "target": 34962,
   "extensions": {
    "EXT_meshopt_compression": {
     "buffer": 0,
     "byteOffset": 57020,
     "byteLength": 16592,
     "byteStride": 4,
     "mode": "ATTRIBUTES",
     "count": 9997
    }
   }
  },
  {
   "buffer": 1,
   "byteOffset": 159952,
   "byteLength": 85968,
   "target": 34963,
   "extensions": {
    "EXT_meshopt_compression": {
     "buffer": 0,
     "byteOffset": 73612,
     "byteLength": 15933,
     "byteStride": 2,
     "mode": "TRIANGLES",
     "count": 42984
    }
   }
  }
 ],
 "accessors": [
  {
   "bufferView": 0,
   "byteOffset": 0,
   "componentType": 5120,
   "count": 9997,
   "type": "VEC3",
   "normalized": true
  },
  {
   "bufferView": 1,
   "byteOffset": 0,
   "componentType": 5123,
   "count": 9997,
   "type": "VEC3",
   "min": [
    0,
    0,
    0
   ],
   "max": [
    48428,
    30921,
    65535
   ]
  },
  {
   "bufferView": 2,
   "byteOffset": 0,
   "componentType": 5123,
   "count": 9997,
   "type": "VEC2",
   "normalized": true
  },
  {
   "bufferView": 3,
   "byteOffset": 0,
   "componentType": 5123,
   "count": 42984,
   "type": "SCALAR"
  }
 ],
 "samplers": [
  {}
 ],
 "images": [
  {
   "name": "Normal_7001216b-427d-4b50-8bbf-42ab63b9f83b.png",
   "uri": "textures/source-tex0-1b1e70761f72.ktx2"
  },
  {
   "name": "ao_met_rough_Metallic_b848cb4c-44f6-4895-b4b5-04cbd747c9aa_Roughness_e0a4eb8b-6867-4938-9f22-52b269f8ab9b",
   "uri": "textures/source-tex1-d99c4ec29d6c.ktx2"
  },
  {
   "name": "B07K7NXVXR_Base_Color.png",
   "uri": "textures/source-tex2-9e2fa15c926f.ktx2"
  }
 ],
 "textures": [
  {
   "sampler": 0,
   "extensions": {
    "KHR_texture_basisu": {
     "source": 2
    }
   }
  },
  {
   "sampler": 0,
   "extensions": {
    "KHR_texture_basisu": {
     "source": 0
    }
   }
  },
  {
   "sampler": 0,
   "extensions": {
    "KHR_texture_basisu": {
     "source": 1
    }
   }
  }
 ],
 "materials": [
  {
   "name": "\"B07K7NXVXR_TRB_MDL_MR1\"",
   "pbrMetallicRoughness": {
    "baseColorTexture": {
     "index": 0,
     "extensions": {
      "KHR_texture_transform": {
       "offset": [
        0.000500000024,
        0.000500023365
       ],
       "scale": [
        15.9805212,
        15.9876585
       ]
      }
     }
    },
    "metallicRoughnessTexture": {
     "index": 2,
     "extensions": {
      "KHR_texture_transform": {
       "offset": [
        0.000500000024,
        0.000500023365
       ],
       "scale": [
        15.9805212,
        15.9876585
       ]
      }
     }
    }
   },
   "normalTexture": {
    "index": 1,
    "extensions": {
     "KHR_texture_transform": {
      "offset": [
       0.000500000024,
       0.000500023365
      ],
      "scale": [
       15.9805212,
       15.9876585
      ]
     }
    }
   }
  }
 ],
 "meshes": [
  {
   "primitives": [
    {
     "attributes": {
      "NORMAL": 0,
      "POSITION": 1,
      "TEXCOORD_0": 2
     },
     "indices": 3,
     "material": 0
    }
   ]
  }
 ],
 "nodes": [
  {
   "mesh": 0,
   "translation": [
    -0.735964954,
    0,
    -0.99593395
   ],
   "scale": [
    0.000030393956,
    0.000030393956,
    0.000030393956
   ]
  }
 ],
 "scenes": [
  {
   "name": "Root Scene",
   "nodes": [
    0
   ]
  }
 ],
 "scene": 0
}
